<?xml version="1.0" standalone="no"?><!DOCTYPE svg PUBLIC "-//W3C//DTD SVG 1.1//EN" "http://www.w3.org/Graphics/SVG/1.1/DTD/svg11.dtd"><svg class="icon" width="200px" height="200.00px" viewBox="0 0 1024 1024" version="1.1" xmlns="http://www.w3.org/2000/svg"><path d="M872 499.904c32 0 96-64 96-64h-352s64 64 96 64h160z" fill="#DA4453" /><path d="M712 372.368c-32 0-96 64-96 64h352s-64-64-96-64h-160z" fill="#DA4453" /><path d="M775.952 220.096h31.968v318.512h-31.968z" fill="#FFCE54" /><path d="M807.984 252.128h31.968v286.48h-31.968z" fill="#F6BB42" /><path d="M840.016 284.16h31.968v254.448h-31.968z" fill="#FFCE54" /><path d="M872.048 316.192h31.968v222.416h-31.968zM744.048 252.128h31.968v286.48h-31.968z" fill="#F6BB42" /><path d="M712.016 284.16h31.968v254.448h-31.968z" fill="#FFCE54" /><path d="M679.984 316.192h31.968v222.416h-31.968z" fill="#F6BB42" /><path d="M647.952 364.24h31.968v174.368h-31.968zM904.208 348.224h31.968v190.384h-31.968z" fill="#FFCE54" /><path d="M8 739.904c0 35.376 28.624 64 64 64h880c35.376 0 64-28.624 64-64H8z" fill="#656D78" /><path d="M536 739.904h-448v-31.984h448v15.984z" fill="#FFD2A6" /><path d="M88 659.904h448v48.016h-448z" fill="#A0D468" /><path d="M536 627.904h-448c-13.232 0-24 10.768-24 24s10.768 24 24 24h448c13.232 0 24-10.768 24-24s-10.768-24-24-24z" fill="#965353" /><path d="M88 547.904h223.776v48.016H88zM311.776 547.904h223.776v48.016H311.776zM936 739.904h-288v-16l-32-288s64 64 96 64h160c32 0 96-64 96-64l-32 288v16z" fill="#ED5565" /><path d="M792 683.92c-30.88 0-56-25.12-56-56s25.12-56 56-56 56 25.12 56 56-25.12 56-56 56z m0-96c-22.064 0-40 17.936-40 40s17.936 40 40 40 40-17.936 40-40-17.936-40-40-40z" fill="#DA4453" /><path d="M536 515.904h-448c-13.232 0-24 10.768-24 24s10.768 24 24 24h448c13.232 0 24-10.768 24-24s-10.768-24-24-24z" fill="#965353" /><path d="M512 595.92l-200 79.984L112 595.92z" fill="#F6BB42" /><path d="M88 595.92h448v31.984h-448z" fill="#FFD2A6" /><path d="M512 483.904l-200 80-200-80z" fill="#F6BB42" /><path d="M536 515.904h-448c0-106.096 100.32-192 224-192s224 85.904 224 192z" fill="#FFD2A6" /><path d="M264.48 435.92c-4.416 0-8.08-3.584-8.08-8s3.504-8 7.904-8h0.176a8 8 0 0 1 0 16zM168.48 435.92c-4.416 0-8.08-3.584-8.08-8s3.504-8 7.904-8h0.176a8 8 0 0 1 0 16zM360.48 435.92c-4.416 0-8.08-3.584-8.08-8s3.504-8 7.904-8h0.176a8 8 0 0 1 0 16zM456.48 435.92c-4.416 0-8.08-3.584-8.08-8s3.504-8 7.904-8h0.176a8 8 0 0 1 0 16zM312.48 483.92c-4.416 0-8.08-3.584-8.08-8s3.504-8 7.904-8h0.176a8 8 0 0 1 0 16zM312.48 387.92c-4.416 0-8.08-3.584-8.08-8s3.504-8 7.904-8h0.176a8 8 0 0 1 0 16zM216.48 483.92c-4.416 0-8.08-3.584-8.08-8s3.504-8 7.904-8h0.176a8 8 0 0 1 0 16zM216.48 387.92c-4.416 0-8.08-3.584-8.08-8s3.504-8 7.904-8h0.176a8 8 0 0 1 0 16zM120.48 483.92c-4.416 0-8.08-3.584-8.08-8s3.504-8 7.904-8h0.176a8 8 0 0 1 0 16zM408.48 483.92c-4.416 0-8.08-3.584-8.08-8s3.504-8 7.904-8h0.176a8 8 0 0 1 0 16zM408.48 387.92c-4.416 0-8.08-3.584-8.08-8s3.504-8 7.904-8h0.176a8 8 0 0 1 0 16zM504.48 483.92c-4.416 0-8.08-3.584-8.08-8s3.504-8 7.904-8h0.176a8 8 0 0 1 0 16z" fill="#F7C292" /><path d="M776 619.92a8 8 0 0 1-5.664-13.648l47.984-47.984a8 8 0 0 1 11.312 11.312l-47.984 47.984a7.968 7.968 0 0 1-5.648 2.336z" fill="#DA4453" /><path d="M760.016 699.904a8 8 0 0 1-5.664-13.648l47.984-47.984a8 8 0 0 1 11.312 11.312l-47.984 47.984a7.968 7.968 0 0 1-5.648 2.336z" fill="#DA4453" /><path d="M808 651.92a8.032 8.032 0 0 1-5.664-2.336l-32-32a8 8 0 0 1 11.312-11.312l32 32a8 8 0 0 1-5.648 13.648z" fill="#DA4453" /></svg>